<svg width="500" height="500" viewBox="0 0 500 500" fill="none" xmlns="http://www.w3.org/2000/svg">
<path d="M500 382.4H0V382.65H500V382.4Z" fill="#E6E6E6" style="fill:#E6E6E6;fill:color(display-p3 0.9020 0.9020 0.9020);fill-opacity:1;"/>
<path d="M124.82 397.53H91.7V397.78H124.82V397.53Z" fill="#E6E6E6" style="fill:#E6E6E6;fill:color(display-p3 0.9020 0.9020 0.9020);fill-opacity:1;"/>
<path d="M81.22 397.53H62.03V397.78H81.22V397.53Z" fill="#E6E6E6" style="fill:#E6E6E6;fill:color(display-p3 0.9020 0.9020 0.9020);fill-opacity:1;"/>
<path d="M210.55 401.21H191.36V401.46H210.55V401.21Z" fill="#E6E6E6" style="fill:#E6E6E6;fill:color(display-p3 0.9020 0.9020 0.9020);fill-opacity:1;"/>
<path d="M310.61 406.79H267.42V407.04H310.61V406.79Z" fill="#E6E6E6" style="fill:#E6E6E6;fill:color(display-p3 0.9020 0.9020 0.9020);fill-opacity:1;"/>
<path d="M258.52 406.79H252.19V407.04H258.52V406.79Z" fill="#E6E6E6" style="fill:#E6E6E6;fill:color(display-p3 0.9020 0.9020 0.9020);fill-opacity:1;"/>
<path d="M453.35 401.21H359.67V401.46H453.35V401.21Z" fill="#E6E6E6" style="fill:#E6E6E6;fill:color(display-p3 0.9020 0.9020 0.9020);fill-opacity:1;"/>
<path d="M237 337.8H43.91C42.3973 337.797 40.9475 337.195 39.8788 336.124C38.8102 335.053 38.21 333.603 38.21 332.09V60.66C38.2231 59.156 38.8292 57.718 39.8964 56.6582C40.9637 55.5985 42.4059 55.0026 43.91 55H237C238.514 55 239.967 55.6016 241.038 56.6724C242.108 57.7433 242.71 59.1956 242.71 60.71V332.09C242.71 333.604 242.108 335.057 241.038 336.128C239.967 337.198 238.514 337.8 237 337.8ZM43.91 55.2C42.4636 55.2026 41.0774 55.7791 40.0556 56.8027C39.0338 57.8264 38.46 59.2136 38.46 60.66V332.09C38.46 333.536 39.0338 334.924 40.0556 335.947C41.0774 336.971 42.4636 337.547 43.91 337.55H237C238.447 337.547 239.834 336.971 240.858 335.948C241.881 334.924 242.457 333.537 242.46 332.09V60.66C242.457 59.2127 241.881 57.8255 240.858 56.8021C239.834 55.7787 238.447 55.2026 237 55.2H43.91Z" fill="#E6E6E6" style="fill:#E6E6E6;fill:color(display-p3 0.9020 0.9020 0.9020);fill-opacity:1;"/>
<path d="M453.31 337.8H260.21C258.696 337.797 257.246 337.195 256.175 336.125C255.105 335.054 254.503 333.604 254.5 332.09V60.66C254.516 59.1551 255.124 57.7171 256.193 56.6576C257.262 55.5981 258.705 55.0025 260.21 55H453.31C454.812 55.0052 456.252 55.6022 457.317 56.6617C458.382 57.7212 458.987 59.1578 459 60.66V332.09C459 333.601 458.401 335.05 457.335 336.121C456.268 337.191 454.821 337.795 453.31 337.8ZM260.21 55.2C258.763 55.2026 257.375 55.7787 256.352 56.8021C255.329 57.8255 254.753 59.2127 254.75 60.66V332.09C254.753 333.537 255.329 334.924 256.352 335.948C257.375 336.971 258.763 337.547 260.21 337.55H453.31C454.757 337.547 456.145 336.971 457.168 335.948C458.191 334.924 458.767 333.537 458.77 332.09V60.66C458.767 59.2127 458.191 57.8255 457.168 56.8021C456.145 55.7787 454.757 55.2026 453.31 55.2H260.21Z" fill="#E6E6E6" style="fill:#E6E6E6;fill:color(display-p3 0.9020 0.9020 0.9020);fill-opacity:1;"/>
<path d="M267.4 296.98H245.41V384.21H267.4V296.98Z" fill="#E0E0E0" style="fill:#E0E0E0;fill:color(display-p3 0.8784 0.8784 0.8784);fill-opacity:1;"/>
<path d="M263.22 384.21H267.4V372.33H258.84L263.22 384.21Z" fill="#FAFAFA" style="fill:#FAFAFA;fill:color(display-p3 0.9804 0.9804 0.9804);fill-opacity:1;"/>
<path d="M171.04 296.98H149.05V384.21H171.04V296.98Z" fill="#E0E0E0" style="fill:#E0E0E0;fill:color(display-p3 0.8784 0.8784 0.8784);fill-opacity:1;"/>
<path d="M267.4 296.98H167.4V376.92H267.4V296.98Z" fill="#FAFAFA" style="fill:#FAFAFA;fill:color(display-p3 0.9804 0.9804 0.9804);fill-opacity:1;"/>
<path d="M263.77 300.91V322.06H171V300.91H263.74M264.13 300.52H170.64V322.44H264.16V300.52H264.13Z" fill="#E0E0E0" style="fill:#E0E0E0;fill:color(display-p3 0.8784 0.8784 0.8784);fill-opacity:1;"/>
<path d="M171.57 384.21H167.4V372.33H175.95L171.57 384.21Z" fill="#FAFAFA" style="fill:#FAFAFA;fill:color(display-p3 0.9804 0.9804 0.9804);fill-opacity:1;"/>
<path d="M215.19 311.48C215.19 311.917 215.32 312.344 215.562 312.708C215.805 313.071 216.15 313.354 216.554 313.522C216.958 313.689 217.402 313.733 217.831 313.648C218.26 313.562 218.654 313.352 218.963 313.043C219.272 312.734 219.482 312.34 219.567 311.911C219.653 311.482 219.609 311.038 219.442 310.634C219.274 310.23 218.991 309.885 218.628 309.642C218.264 309.4 217.837 309.27 217.4 309.27C216.814 309.27 216.252 309.503 215.837 309.917C215.423 310.332 215.19 310.894 215.19 311.48Z" fill="#E6E6E6" style="fill:#E6E6E6;fill:color(display-p3 0.9020 0.9020 0.9020);fill-opacity:1;"/>
<path d="M263.77 326.37V347.52H171V326.37H263.74M264.13 325.99H170.64V347.91H264.16V326L264.13 325.99Z" fill="#E0E0E0" style="fill:#E0E0E0;fill:color(display-p3 0.8784 0.8784 0.8784);fill-opacity:1;"/>
<path d="M215.19 337C215.19 337.437 215.32 337.864 215.562 338.228C215.805 338.591 216.15 338.875 216.554 339.042C216.958 339.209 217.402 339.253 217.831 339.168C218.26 339.082 218.654 338.872 218.963 338.563C219.272 338.254 219.482 337.86 219.567 337.431C219.653 337.002 219.609 336.558 219.442 336.154C219.274 335.75 218.991 335.405 218.628 335.162C218.264 334.92 217.837 334.79 217.4 334.79C216.814 334.79 216.252 335.023 215.837 335.437C215.423 335.852 215.19 336.414 215.19 337Z" fill="#E6E6E6" style="fill:#E6E6E6;fill:color(display-p3 0.9020 0.9020 0.9020);fill-opacity:1;"/>
<path d="M263.77 351.84V373H171V351.84H263.74M264.13 351.45H170.64V373.38H264.16V351.45H264.13Z" fill="#E0E0E0" style="fill:#E0E0E0;fill:color(display-p3 0.8784 0.8784 0.8784);fill-opacity:1;"/>
<path d="M215.19 362.42C215.192 362.857 215.323 363.283 215.567 363.645C215.811 364.007 216.157 364.289 216.561 364.455C216.965 364.62 217.409 364.663 217.837 364.576C218.265 364.49 218.658 364.279 218.966 363.969C219.274 363.66 219.484 363.266 219.568 362.837C219.653 362.409 219.608 361.965 219.441 361.562C219.273 361.159 218.99 360.814 218.627 360.572C218.264 360.329 217.837 360.2 217.4 360.2C217.109 360.2 216.821 360.257 216.552 360.369C216.283 360.481 216.039 360.645 215.834 360.851C215.628 361.057 215.466 361.302 215.355 361.571C215.245 361.84 215.189 362.129 215.19 362.42Z" fill="#E6E6E6" style="fill:#E6E6E6;fill:color(display-p3 0.9020 0.9020 0.9020);fill-opacity:1;"/>
<path d="M157.61 246.32H135.62V384.22H157.61V246.32Z" fill="#E0E0E0" style="fill:#E0E0E0;fill:color(display-p3 0.8784 0.8784 0.8784);fill-opacity:1;"/>
<path d="M153.43 384.21H157.61V372.33H149.06L153.43 384.21Z" fill="#FAFAFA" style="fill:#FAFAFA;fill:color(display-p3 0.9804 0.9804 0.9804);fill-opacity:1;"/>
<path d="M75.4299 246.32H53.4399V384.22H75.4299V246.32Z" fill="#E0E0E0" style="fill:#E0E0E0;fill:color(display-p3 0.8784 0.8784 0.8784);fill-opacity:1;"/>
<path d="M157.61 246.32H71.78V376.93H157.61V246.32Z" fill="#FAFAFA" style="fill:#FAFAFA;fill:color(display-p3 0.9804 0.9804 0.9804);fill-opacity:1;"/>
<path d="M153.91 250V279.57H75.48V250H153.91ZM154.37 249.55H75V280H154.35V249.56L154.37 249.55Z" fill="#E0E0E0" style="fill:#E0E0E0;fill:color(display-p3 0.8784 0.8784 0.8784);fill-opacity:1;"/>
<path d="M153.91 283.18V361.61H116.55V283.18H153.91ZM154.37 282.72H116.1V362.07H154.37V282.72Z" fill="#E0E0E0" style="fill:#E0E0E0;fill:color(display-p3 0.8784 0.8784 0.8784);fill-opacity:1;"/>
<path d="M112.84 283.18V361.61H75.48V283.18H112.84ZM113.29 282.72H75V362.07H113.27V282.72H113.29Z" fill="#E0E0E0" style="fill:#E0E0E0;fill:color(display-p3 0.8784 0.8784 0.8784);fill-opacity:1;"/>
<path d="M75.96 384.21H71.78V372.33H80.34L75.96 384.21Z" fill="#FAFAFA" style="fill:#FAFAFA;fill:color(display-p3 0.9804 0.9804 0.9804);fill-opacity:1;"/>
<path d="M112.48 264.8C112.478 265.239 112.607 265.67 112.849 266.036C113.092 266.402 113.438 266.689 113.843 266.858C114.249 267.028 114.696 267.073 115.127 266.989C115.558 266.904 115.955 266.693 116.266 266.383C116.578 266.073 116.79 265.678 116.877 265.247C116.963 264.816 116.92 264.369 116.752 263.963C116.584 263.557 116.3 263.209 115.934 262.965C115.569 262.72 115.139 262.59 114.7 262.59C114.113 262.59 113.55 262.823 113.134 263.237C112.718 263.651 112.483 264.213 112.48 264.8Z" fill="#E6E6E6" style="fill:#E6E6E6;fill:color(display-p3 0.9020 0.9020 0.9020);fill-opacity:1;"/>
<path d="M120.4 320.53C120.4 320.969 120.53 321.399 120.775 321.764C121.019 322.13 121.366 322.414 121.773 322.582C122.179 322.75 122.626 322.793 123.057 322.707C123.488 322.62 123.883 322.408 124.193 322.096C124.503 321.785 124.714 321.388 124.798 320.957C124.883 320.526 124.838 320.079 124.668 319.673C124.498 319.268 124.212 318.922 123.846 318.679C123.48 318.437 123.049 318.308 122.61 318.31C122.319 318.31 122.031 318.367 121.762 318.479C121.493 318.591 121.249 318.755 121.044 318.961C120.838 319.167 120.676 319.412 120.565 319.681C120.455 319.95 120.399 320.239 120.4 320.53Z" fill="#E6E6E6" style="fill:#E6E6E6;fill:color(display-p3 0.9020 0.9020 0.9020);fill-opacity:1;"/>
<path d="M104.57 320.53C104.572 320.967 104.703 321.393 104.947 321.755C105.191 322.117 105.537 322.399 105.941 322.565C106.345 322.73 106.789 322.773 107.217 322.686C107.645 322.6 108.038 322.389 108.346 322.079C108.654 321.77 108.864 321.376 108.948 320.947C109.033 320.519 108.988 320.075 108.821 319.672C108.653 319.269 108.37 318.924 108.007 318.682C107.644 318.439 107.217 318.31 106.78 318.31C106.489 318.31 106.201 318.367 105.932 318.479C105.663 318.591 105.419 318.755 105.214 318.961C105.008 319.167 104.846 319.412 104.735 319.681C104.625 319.95 104.569 320.239 104.57 320.53Z" fill="#E6E6E6" style="fill:#E6E6E6;fill:color(display-p3 0.9020 0.9020 0.9020);fill-opacity:1;"/>
<path d="M102.07 207.87H92.7999C93.6542 212.367 94.1922 216.918 94.4099 221.49C94.4099 226.49 87.3499 246.32 97.4099 246.32C107.47 246.32 100.41 226.54 100.41 221.49C100.644 216.917 101.199 212.366 102.07 207.87Z" fill="#E0E0E0" style="fill:#E0E0E0;fill:color(display-p3 0.8784 0.8784 0.8784);fill-opacity:1;"/>
<path d="M66.8 228.15V234.15C66.8106 237.366 68.093 240.448 70.3674 242.723C72.6418 244.997 75.7236 246.279 78.94 246.29H84.94C88.1565 246.279 91.2383 244.997 93.5127 242.723C95.7871 240.448 97.0695 237.366 97.08 234.15V228.15H66.8Z" fill="#F5F5F5" style="fill:#F5F5F5;fill:color(display-p3 0.9608 0.9608 0.9608);fill-opacity:1;"/>
<path d="M195.67 284.26C195.67 291.26 203.5 296.98 213.07 296.98H221.71C231.28 296.98 239.11 291.26 239.11 284.26H195.67Z" fill="#E0E0E0" style="fill:#E0E0E0;fill:color(display-p3 0.8784 0.8784 0.8784);fill-opacity:1;"/>
<path d="M424.61 274C419.37 278.28 412.13 286.11 405.51 297.13C401.09 304.47 398.43 312.13 397.26 322.31C397.26 310.81 397.33 298.46 397.37 286.8C398.7 283.8 401.74 276.88 403.92 271.42C411.19 253.19 413.92 248.7 420.45 232.98C429.18 211.98 438.12 187.12 435.56 189.11C430.34 193.16 410.34 230.61 408.18 235.97C402.292 250.274 398.653 265.403 397.39 280.82C397.39 269.82 397.47 259.82 397.51 252.06C397.65 226.75 398.08 218.58 398.29 216.06C399.1 214.78 400.05 213.29 400.61 212.49C405.31 205.69 407.12 199.91 411.54 189.77C417.82 175.42 423.22 149.93 421.64 151.21C415.06 156.57 409.88 168.07 403.06 182.74C396.24 197.41 398.19 205.84 396.84 218.36C396.56 220.82 396.34 230.1 396.18 242.95C394.42 229.25 391.1 220.23 385.05 212.03C377.61 201.94 370.41 195.13 365.13 191.57C359.85 188.01 374.25 212.79 381.13 223.57C387.26 233.21 392.91 241.7 396.13 250.07C395.96 267.5 395.88 289.56 395.88 310.07C394.3 300.73 391.72 290.66 388.28 282.87C384.14 273.51 377.78 259.15 372.71 254.28C371.5 253.11 378.01 281.04 382.19 288.46C386.37 295.88 389.44 302.89 392.07 307.1C392.68 308.1 394.72 311.87 395.88 314.05C395.88 339.12 396.02 361.24 396.24 368.77H397.32C397.25 366.83 397.23 354.07 397.26 337.19C399.87 328.03 405.83 317.57 410.75 308.03C416.11 297.7 429.85 269.75 424.61 274Z" fill="#E0E0E0" style="fill:#E0E0E0;fill:color(display-p3 0.8784 0.8784 0.8784);fill-opacity:1;"/>
<path d="M412.44 384.21H381.1L378.73 353.49H414.81L412.44 384.21Z" fill="#F0F0F0" style="fill:#F0F0F0;fill:color(display-p3 0.9412 0.9412 0.9412);fill-opacity:1;"/>
<path d="M417.14 357.07H376.39L375.23 346.7H418.31L417.14 357.07Z" fill="#F5F5F5" style="fill:#F5F5F5;fill:color(display-p3 0.9608 0.9608 0.9608);fill-opacity:1;"/>
<path d="M124.26 75.5H68.21V137.05H124.26V75.5Z" fill="#E0E0E0" style="fill:#E0E0E0;fill:color(display-p3 0.8784 0.8784 0.8784);fill-opacity:1;"/>
<path d="M130.33 75.5H72.4299V137.05H130.33V75.5Z" fill="#F5F5F5" style="fill:#F5F5F5;fill:color(display-p3 0.9608 0.9608 0.9608);fill-opacity:1;"/>
<path d="M125.48 132.2V80.35H77.28V132.2H125.48Z" fill="white" style="fill:white;fill-opacity:1;"/>
<path d="M113.79 119.62V92.91H88.96V119.62H113.79Z" fill="#F5F5F5" style="fill:#F5F5F5;fill:color(display-p3 0.9608 0.9608 0.9608);fill-opacity:1;"/>
<path d="M410.05 82.67H357.98V139.85H410.05V82.67Z" fill="#E0E0E0" style="fill:#E0E0E0;fill:color(display-p3 0.8784 0.8784 0.8784);fill-opacity:1;"/>
<path d="M415.69 82.67H361.91V139.85H415.69V82.67Z" fill="#F5F5F5" style="fill:#F5F5F5;fill:color(display-p3 0.9608 0.9608 0.9608);fill-opacity:1;"/>
<path d="M411.19 135.34V87.18H366.42V135.34H411.19Z" fill="white" style="fill:white;fill-opacity:1;"/>
<path d="M388.8 125.23C396.515 125.23 402.77 118.975 402.77 111.26C402.77 103.545 396.515 97.29 388.8 97.29C381.085 97.29 374.83 103.545 374.83 111.26C374.83 118.975 381.085 125.23 388.8 125.23Z" fill="#F5F5F5" style="fill:#F5F5F5;fill:color(display-p3 0.9608 0.9608 0.9608);fill-opacity:1;"/>
<path d="M182.49 112.2H140.91V157.86H182.49V112.2Z" fill="#E0E0E0" style="fill:#E0E0E0;fill:color(display-p3 0.8784 0.8784 0.8784);fill-opacity:1;"/>
<path d="M186.99 112.2H144.04V157.86H186.99V112.2Z" fill="#F5F5F5" style="fill:#F5F5F5;fill:color(display-p3 0.9608 0.9608 0.9608);fill-opacity:1;"/>
<path d="M183.39 154.26V115.8H147.64V154.26H183.39Z" fill="white" style="fill:white;fill-opacity:1;"/>
<path d="M165.52 125.3L155.74 142.24H175.3L165.52 125.3Z" fill="#F5F5F5" style="fill:#F5F5F5;fill:color(display-p3 0.9608 0.9608 0.9608);fill-opacity:1;"/>
<path d="M250 427.56C357.083 427.56 443.89 422.492 443.89 416.24C443.89 409.988 357.083 404.92 250 404.92C142.918 404.92 56.1101 409.988 56.1101 416.24C56.1101 422.492 142.918 427.56 250 427.56Z" fill="#F5F5F5" style="fill:#F5F5F5;fill:color(display-p3 0.9608 0.9608 0.9608);fill-opacity:1;"/>
<path d="M349.25 163.43L339.33 159.43C339.33 159.43 326.24 183.3 322.49 184.51C317.39 186.15 306.83 190.71 300.57 191.51C299.72 192.51 298.33 195.62 298.46 196.75C306.87 199.56 325.35 195.83 329.31 192.89C338.32 186.22 349.25 163.43 349.25 163.43Z" fill="#E58A7B" style="fill:#E58A7B;fill:color(display-p3 0.8980 0.5412 0.4824);fill-opacity:1;"/>
<path d="M352.3 158C354.15 164.83 344.13 178.57 344.13 178.57L331 171.21C331 171.21 333.46 165.56 336.46 159.81C341.27 150.52 350.19 150.21 352.3 158Z" fill="#363636" style="fill:#363636;fill:color(display-p3 0.2125 0.2125 0.2125);fill-opacity:1;"/>
<path opacity="0.2" d="M352.3 158C354.15 164.83 344.13 178.57 344.13 178.57L331 171.21C331 171.21 333.46 165.56 336.46 159.81C341.27 150.52 350.19 150.21 352.3 158Z" fill="black" style="fill:black;fill-opacity:1;"/>
<path opacity="0.2" d="M336.21 174.15L341.38 177.05L342.29 161.18C339.28 163.49 337.16 170.45 336.21 174.15Z" fill="black" style="fill:black;fill-opacity:1;"/>
<path d="M343.66 152.86C343.66 152.86 333.44 175.6 339.4 217.94H379.67C380.31 211.76 378.19 181.6 385.86 152.48C381.442 151.617 376.973 151.045 372.48 150.77C366.781 150.44 361.068 150.44 355.37 150.77C351.419 151.171 347.505 151.87 343.66 152.86Z" fill="#363636" style="fill:#363636;fill:color(display-p3 0.2125 0.2125 0.2125);fill-opacity:1;"/>
<path opacity="0.2" d="M343.66 152.86C343.66 152.86 333.44 175.6 339.4 217.94H379.67C380.31 211.76 378.19 181.6 385.86 152.48C381.442 151.617 376.973 151.045 372.48 150.77C366.781 150.44 361.068 150.44 355.37 150.77C351.419 151.171 347.505 151.87 343.66 152.86Z" fill="black" style="fill:black;fill-opacity:1;"/>
<g style="mix-blend-mode:multiply">
<path d="M334.32 417.14C334.26 418.22 349.53 419.09 368.42 419.09C387.31 419.09 402.69 418.22 402.75 417.14C402.81 416.06 387.55 415.2 368.65 415.2C349.75 415.2 334.39 416.07 334.32 417.14Z" fill="#E8ECF1" style="fill:#E8ECF1;fill:color(display-p3 0.9098 0.9255 0.9451);fill-opacity:1;"/>
</g>
<path d="M361.2 388.763L354.058 391.528L360.211 407.421L367.353 404.656L361.2 388.763Z" fill="#E58A7B" style="fill:#E58A7B;fill:color(display-p3 0.8980 0.5412 0.4824);fill-opacity:1;"/>
<path d="M393.05 409.45H385.52L382.76 392.02H390.29L393.05 409.45Z" fill="#E58A7B" style="fill:#E58A7B;fill:color(display-p3 0.8980 0.5412 0.4824);fill-opacity:1;"/>
<path d="M385 408.58H393.46C393.607 408.58 393.749 408.633 393.86 408.728C393.972 408.823 394.046 408.955 394.07 409.1L395.16 415.79C395.183 415.958 395.17 416.129 395.121 416.291C395.072 416.453 394.988 416.603 394.876 416.73C394.765 416.857 394.627 416.959 394.472 417.028C394.317 417.097 394.149 417.132 393.98 417.13C391.03 417.08 389.61 416.9 385.89 416.9C383.6 416.9 378.89 417.14 375.71 417.14C372.53 417.14 372.32 414.02 373.63 413.73C379.51 412.46 381.79 410.73 383.75 409.05C384.096 408.746 384.54 408.579 385 408.58Z" fill="#263238" style="fill:#263238;fill:color(display-p3 0.1490 0.1961 0.2196);fill-opacity:1;"/>
<path d="M360 406L368 403.66C368.143 403.62 368.295 403.63 368.431 403.688C368.568 403.746 368.68 403.849 368.75 403.98L371.75 409.98C371.82 410.132 371.855 410.298 371.854 410.465C371.853 410.633 371.816 410.798 371.744 410.949C371.673 411.101 371.569 411.235 371.441 411.342C371.312 411.449 371.162 411.527 371 411.57C368.09 412.37 366.14 412.86 362.5 413.92C359.99 414.65 357.43 415.84 354.95 416.63C353.23 417.18 349.19 417.2 347.1 417.2C344.01 417.2 343.32 413.94 344.65 413.79C348 413.42 348.45 413.59 350.3 412.66C353.327 411.337 356.07 409.442 358.38 407.08C358.815 406.584 359.374 406.211 360 406Z" fill="#263238" style="fill:#263238;fill:color(display-p3 0.1490 0.1961 0.2196);fill-opacity:1;"/>
<path d="M301.83 191.47L293.55 188L290.14 197.18C293.534 197.697 296.986 197.697 300.38 197.18L301.83 191.47Z" fill="#E58A7B" style="fill:#E58A7B;fill:color(display-p3 0.8980 0.5412 0.4824);fill-opacity:1;"/>
<path d="M287.39 187.76L287.17 193.86L290.14 197.16L293.55 187.98L287.39 187.76Z" fill="#E58A7B" style="fill:#E58A7B;fill:color(display-p3 0.8980 0.5412 0.4824);fill-opacity:1;"/>
<path d="M362.18 390.112L355.016 392.878L358.189 401.097L365.353 398.331L362.18 390.112Z" fill="#CF6F64" style="fill:#CF6F64;fill:color(display-p3 0.8118 0.4353 0.3922);fill-opacity:1;"/>
<path d="M390.29 392.02H382.76L384.19 401.01H391.72L390.29 392.02Z" fill="#CF6F64" style="fill:#CF6F64;fill:color(display-p3 0.8118 0.4353 0.3922);fill-opacity:1;"/>
<path opacity="0.2" d="M338.12 206.49C338.27 208.3 338.44 210.15 338.66 212.05L368.6 202.33C373.275 200.944 377.339 198.006 380.12 194C380.24 191.33 380.39 188.52 380.62 185.59C380.72 184.17 380.84 182.71 380.97 181.23C381.1 179.75 381.28 178.11 381.47 176.53L338.12 206.49Z" fill="black" style="fill:black;fill-opacity:1;"/>
<path d="M347.9 173.69L346.9 173.57C347.49 168.57 351.22 164.63 355.15 164.73V165.73C351.71 165.66 348.43 169.21 347.9 173.69Z" fill="white" style="fill:white;fill-opacity:1;"/>
<path d="M353.23 182.92H353.06V181.92C356.5 182.05 359.73 178.46 360.26 173.99L361.26 174.11C360.73 179 357.12 182.92 353.23 182.92Z" fill="white" style="fill:white;fill-opacity:1;"/>
<path d="M371.92 131.5C370.51 137.01 368.85 147.1 372.48 150.77C372.48 150.77 369.94 156.36 359.71 156.36C350.36 156.36 355.37 150.77 355.37 150.77C361.59 149.31 361.7 144.77 360.88 140.47L371.92 131.5Z" fill="#E58A7B" style="fill:#E58A7B;fill:color(display-p3 0.8980 0.5412 0.4824);fill-opacity:1;"/>
<path d="M367.42 135.16L360.89 140.47C361.092 141.458 361.209 142.462 361.24 143.47C363.15 145.37 366.98 140.56 367.37 138.1C367.568 137.132 367.585 136.135 367.42 135.16Z" fill="#CF6F64" style="fill:#CF6F64;fill:color(display-p3 0.8118 0.4353 0.3922);fill-opacity:1;"/>
<path d="M349.66 131.43C350.114 132.218 350.726 132.903 351.458 133.443C352.189 133.983 353.024 134.367 353.91 134.57C356.31 135.1 357.51 132.89 356.85 130.67C356.26 128.67 354.29 125.98 351.85 126.44C351.327 126.548 350.838 126.779 350.423 127.115C350.008 127.45 349.68 127.88 349.465 128.369C349.251 128.858 349.157 129.391 349.191 129.923C349.224 130.456 349.385 130.972 349.66 131.43Z" fill="#CF6F64" style="fill:#CF6F64;fill:color(display-p3 0.8118 0.4353 0.3922);fill-opacity:1;"/>
<path d="M353.63 113.8C349.89 115.51 348.57 130.37 353.27 132.57C357.97 134.77 360.71 110.55 353.63 113.8Z" fill="#263238" style="fill:#263238;fill:color(display-p3 0.1490 0.1961 0.2196);fill-opacity:1;"/>
<path d="M373.06 123.21C372.16 130.67 372.06 135.06 368.06 138.88C366.82 140.148 365.255 141.048 363.536 141.482C361.817 141.916 360.011 141.866 358.319 141.339C356.626 140.811 355.112 139.826 353.944 138.492C352.776 137.158 352 135.527 351.7 133.78C350.49 127.08 352.16 116.01 359.64 113.04C361.212 112.347 362.94 112.087 364.646 112.286C366.352 112.486 367.974 113.138 369.343 114.176C370.712 115.213 371.778 116.598 372.432 118.187C373.086 119.775 373.302 121.509 373.06 123.21Z" fill="#E58A7B" style="fill:#E58A7B;fill:color(display-p3 0.8980 0.5412 0.4824);fill-opacity:1;"/>
<path d="M360.77 117.66C366.31 116.25 370.38 115.29 368.92 119.9C366.99 126.06 364.67 132.02 367.78 132.29C369.68 132.46 378.08 128.9 377.01 125.29C376.08 122.15 380.01 121.29 380.71 119.7C383.3 113.94 375.89 114.7 377.21 111.2C378.53 107.7 371.21 102.06 367.21 104.87C360.7 109.41 349.53 109.34 355.4 101.87C359.61 96.54 352.1 97.63 352.1 97.63C352.1 97.63 356.64 100.32 349 104.48C340.92 108.92 348.33 120.85 360.77 117.66Z" fill="#263238" style="fill:#263238;fill:color(display-p3 0.1490 0.1961 0.2196);fill-opacity:1;"/>
<path d="M376 131.43C374.906 133.013 373.263 134.132 371.39 134.57C368.92 135.1 367.97 132.89 368.9 130.67C369.73 128.67 372.01 125.98 374.37 126.44C376.73 126.9 377.27 129.47 376 131.43Z" fill="#E58A7B" style="fill:#E58A7B;fill:color(display-p3 0.8980 0.5412 0.4824);fill-opacity:1;"/>
<path d="M339.4 217.94C339.4 217.94 332.64 278.44 332.11 301.4C331.57 325.28 355.02 399.79 355.02 399.79L367.02 394.79C367.02 394.79 353.02 326.71 355.02 303.26C357.14 277.69 365.9 217.98 365.9 217.98L339.4 217.94Z" fill="#363636" style="fill:#363636;fill:color(display-p3 0.2125 0.2125 0.2125);fill-opacity:1;"/>
<path opacity="0.2" d="M356.2 234.55C350.81 245.73 354.44 267.84 357.36 280.94C358.47 271.69 359.79 261.65 361.04 252.36C360.92 238.08 359.81 227.05 356.2 234.55Z" fill="black" style="fill:black;fill-opacity:1;"/>
<path d="M366.49 390.83C366.55 390.83 367.91 394.65 367.91 394.65L354.07 400.47L351.89 396.41L366.49 390.83Z" fill="#363636" style="fill:#363636;fill:color(display-p3 0.2125 0.2125 0.2125);fill-opacity:1;"/>
<path d="M353.69 217.94C353.69 217.94 358.86 275.48 362.28 297.03C366.04 320.64 380.78 399.27 380.78 399.27H394.57C394.57 399.27 386.31 322.55 384.75 299.17C383.05 273.81 379.67 217.94 379.67 217.94H353.69Z" fill="#363636" style="fill:#363636;fill:color(display-p3 0.2125 0.2125 0.2125);fill-opacity:1;"/>
<path d="M394.78 395.68C394.84 395.68 395.24 399.53 395.24 399.53H380.08L379 395.11L394.78 395.68Z" fill="#363636" style="fill:#363636;fill:color(display-p3 0.2125 0.2125 0.2125);fill-opacity:1;"/>
<path opacity="0.2" d="M389.5 391.12C389.469 391.12 389.438 391.109 389.415 391.089C389.391 391.069 389.375 391.041 389.37 391.01C389.29 390.31 381.84 321.01 380.44 300.01C378.92 277.23 375.86 226.7 375.83 226.19C375.829 226.173 375.831 226.157 375.836 226.141C375.842 226.125 375.85 226.111 375.861 226.099C375.873 226.086 375.886 226.077 375.902 226.07C375.917 226.063 375.933 226.06 375.95 226.06C375.983 226.06 376.014 226.072 376.039 226.094C376.063 226.117 376.077 226.147 376.08 226.18C376.08 226.69 379.17 277.18 380.69 300C382.09 321 389.54 390.25 389.61 391C389.613 391.017 389.612 391.033 389.608 391.05C389.604 391.066 389.596 391.081 389.586 391.094C389.576 391.108 389.563 391.118 389.548 391.126C389.533 391.134 389.517 391.139 389.5 391.14V391.12Z" fill="black" style="fill:black;fill-opacity:1;"/>
<path d="M361.62 125.29C361.62 125.9 361.24 126.39 360.84 126.39C360.44 126.39 360.15 125.9 360.19 125.29C360.23 124.68 360.57 124.19 360.97 124.19C361.37 124.19 361.66 124.69 361.62 125.29Z" fill="#263238" style="fill:#263238;fill:color(display-p3 0.1490 0.1961 0.2196);fill-opacity:1;"/>
<path d="M354.76 125.29C354.76 125.9 354.37 126.39 353.98 126.39C353.59 126.39 353.29 125.9 353.32 125.29C353.35 124.68 353.71 124.19 354.11 124.19C354.51 124.19 354.8 124.69 354.76 125.29Z" fill="#263238" style="fill:#263238;fill:color(display-p3 0.1490 0.1961 0.2196);fill-opacity:1;"/>
<path d="M356.92 125.6C356.085 127.463 355.009 129.208 353.72 130.79C354.72 131.79 356.59 131.33 356.59 131.33L356.92 125.6Z" fill="#DF5753" style="fill:#DF5753;fill:color(display-p3 0.8745 0.3412 0.3255);fill-opacity:1;"/>
<path d="M357.1 133.88C357.077 133.88 357.054 133.875 357.033 133.866C357.011 133.857 356.992 133.844 356.976 133.827C356.96 133.81 356.948 133.79 356.94 133.768C356.932 133.746 356.929 133.723 356.93 133.7C356.933 133.651 356.954 133.606 356.989 133.572C357.024 133.539 357.071 133.52 357.12 133.52C357.885 133.525 358.641 133.359 359.333 133.034C360.025 132.708 360.636 132.232 361.12 131.64C361.155 131.61 361.199 131.593 361.245 131.593C361.291 131.593 361.335 131.61 361.37 131.64C361.402 131.674 361.42 131.718 361.42 131.765C361.42 131.812 361.402 131.856 361.37 131.89C360.852 132.519 360.2 133.025 359.461 133.369C358.722 133.714 357.915 133.888 357.1 133.88Z" fill="#263238" style="fill:#263238;fill:color(display-p3 0.1490 0.1961 0.2196);fill-opacity:1;"/>
<path d="M362.84 123.45C362.792 123.475 362.739 123.487 362.685 123.487C362.631 123.487 362.578 123.475 362.53 123.45C362.156 123.208 361.73 123.058 361.287 123.011C360.844 122.964 360.396 123.022 359.98 123.18C359.939 123.2 359.895 123.212 359.85 123.215C359.805 123.218 359.759 123.212 359.716 123.197C359.673 123.182 359.634 123.159 359.6 123.128C359.566 123.098 359.539 123.061 359.52 123.02C359.483 122.931 359.482 122.831 359.517 122.741C359.553 122.652 359.622 122.579 359.71 122.54C360.233 122.326 360.799 122.242 361.362 122.294C361.924 122.347 362.465 122.534 362.94 122.84C362.978 122.866 363.011 122.899 363.036 122.938C363.062 122.977 363.079 123.021 363.087 123.066C363.096 123.112 363.095 123.159 363.085 123.204C363.075 123.249 363.057 123.292 363.03 123.33C362.979 123.387 362.913 123.429 362.84 123.45Z" fill="#263238" style="fill:#263238;fill:color(display-p3 0.1490 0.1961 0.2196);fill-opacity:1;"/>
<path d="M352.11 121.45C352.056 121.437 352.008 121.409 351.97 121.37C351.937 121.337 351.91 121.299 351.892 121.256C351.874 121.213 351.865 121.167 351.865 121.12C351.865 121.073 351.874 121.027 351.892 120.984C351.91 120.941 351.937 120.903 351.97 120.87C352.353 120.44 352.83 120.105 353.365 119.889C353.899 119.674 354.476 119.586 355.05 119.63C355.096 119.637 355.14 119.654 355.179 119.678C355.219 119.703 355.252 119.736 355.279 119.774C355.305 119.813 355.323 119.856 355.332 119.902C355.341 119.948 355.34 119.995 355.33 120.04C355.308 120.133 355.254 120.214 355.177 120.269C355.099 120.325 355.004 120.35 354.91 120.34C354.455 120.311 354 120.387 353.579 120.56C353.158 120.733 352.782 121 352.48 121.34C352.434 121.391 352.376 121.428 352.31 121.447C352.245 121.466 352.176 121.467 352.11 121.45Z" fill="#263238" style="fill:#263238;fill:color(display-p3 0.1490 0.1961 0.2196);fill-opacity:1;"/>
<path d="M389.73 162.32L379.33 159.55C379.33 159.55 369.13 184.66 365.52 186.29C360.62 188.53 348.21 196.29 342.93 199.96C342.64 201.21 342.87 204.52 343.53 205.43C352.53 203.79 369.76 197.16 373.36 193.79C381.57 186.1 389.73 162.32 389.73 162.32Z" fill="#E58A7B" style="fill:#E58A7B;fill:color(display-p3 0.8980 0.5412 0.4824);fill-opacity:1;"/>
<path d="M382.47 409.9C381.962 409.94 381.457 409.802 381.04 409.51C380.911 409.394 380.815 409.246 380.76 409.081C380.706 408.916 380.696 408.74 380.73 408.57C380.736 408.464 380.771 408.361 380.831 408.273C380.891 408.185 380.973 408.115 381.07 408.07C381.91 407.64 384.26 409.13 384.53 409.3C384.56 409.318 384.583 409.346 384.595 409.378C384.608 409.411 384.61 409.446 384.6 409.48C384.591 409.515 384.574 409.547 384.55 409.573C384.525 409.6 384.494 409.619 384.46 409.63C383.808 409.79 383.141 409.881 382.47 409.9ZM381.47 408.34C381.394 408.323 381.316 408.323 381.24 408.34C381.202 408.359 381.17 408.39 381.149 408.427C381.127 408.464 381.117 408.507 381.12 408.55C381.093 408.666 381.098 408.788 381.133 408.902C381.168 409.016 381.233 409.119 381.32 409.2C381.71 409.55 382.69 409.59 383.98 409.34C383.212 408.834 382.347 408.494 381.44 408.34H381.47Z" fill="#363636" style="fill:#363636;fill:color(display-p3 0.2125 0.2125 0.2125);fill-opacity:1;"/>
<path d="M384.41 409.63C384.384 409.638 384.356 409.638 384.33 409.63C383.58 409.21 382.17 407.56 382.38 406.72C382.411 406.587 382.487 406.468 382.594 406.383C382.701 406.298 382.833 406.251 382.97 406.25C383.104 406.232 383.241 406.243 383.37 406.283C383.5 406.323 383.619 406.39 383.72 406.48C384.55 407.19 384.6 409.37 384.6 409.48C384.605 409.513 384.599 409.546 384.582 409.575C384.566 409.604 384.541 409.627 384.51 409.64C384.476 409.647 384.442 409.643 384.41 409.63ZM383.07 406.58H383C382.77 406.58 382.74 406.71 382.73 406.76C382.61 407.25 383.5 408.5 384.24 409.09C384.237 408.245 383.975 407.422 383.49 406.73C383.374 406.629 383.224 406.575 383.07 406.58Z" fill="#363636" style="fill:#363636;fill:color(display-p3 0.2125 0.2125 0.2125);fill-opacity:1;"/>
<path d="M355.92 408.65C355.308 408.863 354.642 408.863 354.03 408.65C353.891 408.575 353.773 408.466 353.688 408.333C353.602 408.2 353.551 408.048 353.54 407.89C353.527 407.791 353.54 407.691 353.577 407.598C353.613 407.505 353.673 407.423 353.75 407.36C354.55 406.64 357.82 407.36 358.19 407.5C358.225 407.509 358.256 407.53 358.278 407.559C358.3 407.588 358.311 407.624 358.31 407.66C358.311 407.698 358.302 407.735 358.282 407.767C358.263 407.799 358.234 407.824 358.2 407.84C357.464 408.172 356.701 408.443 355.92 408.65ZM354.29 407.46C354.176 407.483 354.069 407.535 353.98 407.61C353.948 407.634 353.924 407.666 353.909 407.703C353.895 407.741 353.892 407.781 353.9 407.82C353.906 407.925 353.939 408.027 353.995 408.116C354.051 408.205 354.128 408.278 354.22 408.33C354.75 408.61 355.98 408.39 357.57 407.72C356.499 407.45 355.39 407.362 354.29 407.46Z" fill="#363636" style="fill:#363636;fill:color(display-p3 0.2125 0.2125 0.2125);fill-opacity:1;"/>
<path d="M358.17 407.84H358.09C357.09 407.66 355.09 406.51 355.03 405.65C355.03 405.45 355.12 405.17 355.6 405.01C355.762 404.952 355.934 404.928 356.106 404.938C356.278 404.948 356.446 404.993 356.6 405.07C357.68 405.6 358.25 407.52 358.28 407.61C358.287 407.64 358.286 407.672 358.277 407.702C358.268 407.731 358.252 407.758 358.23 407.78C358.215 407.804 358.194 407.825 358.17 407.84ZM355.8 405.31H355.7C355.39 405.42 355.39 405.55 355.39 405.59C355.39 406.11 356.84 407.06 357.85 407.38C357.617 406.577 357.125 405.873 356.45 405.38C356.249 405.278 356.018 405.253 355.8 405.31Z" fill="#363636" style="fill:#363636;fill:color(display-p3 0.2125 0.2125 0.2125);fill-opacity:1;"/>
<path d="M343.78 199.37L333.35 204.17L332.14 207.17L335.99 209.76C335.99 209.76 343.19 208.98 345.24 204.35L343.78 199.37Z" fill="#E58A7B" style="fill:#E58A7B;fill:color(display-p3 0.8980 0.5412 0.4824);fill-opacity:1;"/>
<path d="M344.22 205.6C343.987 203.596 343.325 201.666 342.28 199.94L343.93 198.7C345.171 200.688 345.963 202.924 346.25 205.25L344.22 205.6Z" fill="#263238" style="fill:#263238;fill:color(display-p3 0.1490 0.1961 0.2196);fill-opacity:1;"/>
<path d="M346 200.79C346.22 201.137 346.329 201.543 346.31 201.954C346.292 202.364 346.147 202.759 345.896 203.084C345.645 203.41 345.3 203.65 344.908 203.772C344.515 203.895 344.095 203.893 343.703 203.768C343.312 203.643 342.968 203.4 342.72 203.073C342.471 202.746 342.329 202.35 342.314 201.939C342.298 201.529 342.409 201.123 342.632 200.778C342.855 200.433 343.179 200.165 343.56 200.01C343.987 199.792 344.484 199.752 344.94 199.898C345.397 200.044 345.778 200.365 346 200.79Z" fill="#263238" style="fill:#263238;fill:color(display-p3 0.1490 0.1961 0.2196);fill-opacity:1;"/>
<path d="M326.3 208.05L327.69 209.45L337.05 205.45L333.35 204.17L326.3 208.05Z" fill="#E58A7B" style="fill:#E58A7B;fill:color(display-p3 0.8980 0.5412 0.4824);fill-opacity:1;"/>
<path opacity="0.2" d="M366.49 390.83C366.55 390.83 367.91 394.65 367.91 394.65L354.07 400.47L351.89 396.41L366.49 390.83Z" fill="black" style="fill:black;fill-opacity:1;"/>
<path opacity="0.2" d="M394.78 395.68C394.84 395.68 395.24 399.53 395.24 399.53H380.08L379 395.11L394.78 395.68Z" fill="black" style="fill:black;fill-opacity:1;"/>
<path d="M392.44 159.44C395.19 168.31 384.44 180.44 384.44 180.44L369.59 174.38C371.35 169.253 373.38 164.223 375.67 159.31C380.23 149.48 389.66 150.49 392.44 159.44Z" fill="#363636" style="fill:#363636;fill:color(display-p3 0.2125 0.2125 0.2125);fill-opacity:1;"/>
<path opacity="0.2" d="M392.44 159.44C395.19 168.31 384.44 180.44 384.44 180.44L369.59 174.38C371.35 169.253 373.38 164.223 375.67 159.31C380.23 149.48 389.66 150.49 392.44 159.44Z" fill="black" style="fill:black;fill-opacity:1;"/>
<path d="M244.88 70.57H238.49V71.6H244.88V70.57Z" fill="#363636" style="fill:#363636;fill:color(display-p3 0.2125 0.2125 0.2125);fill-opacity:1;"/>
<path d="M327.598 111.337L326.825 128.499L327.854 128.545L328.627 111.383L327.598 111.337Z" fill="#363636" style="fill:#363636;fill:color(display-p3 0.2125 0.2125 0.2125);fill-opacity:1;"/>
<path d="M325.61 75.19H207.61L196.63 320.91H314.63L325.61 75.19Z" fill="#363636" style="fill:#363636;fill:color(display-p3 0.2125 0.2125 0.2125);fill-opacity:1;"/>
<path opacity="0.56" d="M322.09 78.57H204.09L193.11 324.29H311.11L322.09 78.57Z" fill="#FAFAFA" style="fill:#FAFAFA;fill:color(display-p3 0.9804 0.9804 0.9804);fill-opacity:1;"/>
<path opacity="0.07" d="M318.57 81.94H200.57L189.58 327.66H307.58L318.57 81.94Z" fill="#363636" style="fill:#363636;fill:color(display-p3 0.2125 0.2125 0.2125);fill-opacity:1;"/>
<path d="M305.14 189.11H204.42L203.58 207.91H304.3L305.14 189.11Z" fill="white" style="fill:white;fill-opacity:1;"/>
<path d="M259.81 175.39H205.03L204.66 183.8H259.44L259.81 175.39Z" fill="#363636" style="fill:#363636;fill:color(display-p3 0.2125 0.2125 0.2125);fill-opacity:1;"/>
<path d="M302.87 239.85H202.15L201.31 258.65H302.03L302.87 239.85Z" fill="white" style="fill:white;fill-opacity:1;"/>
<path opacity="0.47" d="M284.4 284.04H216.67L215.66 306.57H283.39L284.4 284.04Z" fill="#363636" style="fill:#363636;fill:color(display-p3 0.2125 0.2125 0.2125);fill-opacity:1;"/>
<path d="M279.87 310.07H212.14C212.111 310.078 212.08 310.078 212.05 310.07C212.04 310.041 212.04 310.009 212.05 309.98L213.05 287.44C213.05 287.425 213.053 287.409 213.059 287.395C213.066 287.381 213.075 287.369 213.086 287.358C213.097 287.348 213.11 287.34 213.125 287.335C213.14 287.33 213.155 287.329 213.17 287.33H280.9C280.913 287.324 280.926 287.321 280.94 287.321C280.954 287.321 280.968 287.324 280.98 287.33C280.987 287.342 280.991 287.356 280.991 287.37C280.991 287.384 280.987 287.398 280.98 287.41L280 310C279.988 310.023 279.969 310.043 279.946 310.055C279.923 310.068 279.896 310.073 279.87 310.07ZM212.26 309.83H279.75L280.75 287.53H213.26L212.26 309.83Z" fill="white" style="fill:white;fill-opacity:1;"/>
<path d="M247.98 226.13H202.76L202.39 234.55H247.6L247.98 226.13Z" fill="#363636" style="fill:#363636;fill:color(display-p3 0.2125 0.2125 0.2125);fill-opacity:1;"/>
<path d="M283.11 128.38C282.852 133.851 280.906 139.109 277.54 143.43C275.049 146.694 271.842 149.344 268.167 151.176C264.492 153.009 260.446 153.975 256.34 154C253.022 154.025 249.733 153.371 246.678 152.077C243.622 150.784 240.863 148.878 238.572 146.478C236.28 144.078 234.504 141.234 233.353 138.121C232.203 135.009 231.701 131.694 231.88 128.38C232.232 121.504 235.197 115.022 240.169 110.26C245.142 105.498 251.745 102.815 258.63 102.76C261.951 102.729 265.243 103.379 268.302 104.671C271.362 105.962 274.124 107.867 276.418 110.268C278.713 112.67 280.49 115.516 281.641 118.631C282.792 121.746 283.292 125.064 283.11 128.38Z" fill="white" style="fill:white;fill-opacity:1;"/>
<path d="M285.52 108.12C285.455 109.575 284.937 110.973 284.04 112.12C283.376 112.987 282.523 113.691 281.545 114.178C280.568 114.665 279.492 114.922 278.4 114.93C277.342 114.936 276.298 114.684 275.361 114.194C274.423 113.704 273.619 112.992 273.02 112.12C272.227 110.942 271.834 109.539 271.9 108.12C271.997 106.294 272.786 104.574 274.107 103.311C275.428 102.047 277.182 101.335 279.01 101.32C279.892 101.312 280.766 101.485 281.579 101.827C282.392 102.17 283.125 102.675 283.735 103.312C284.345 103.949 284.818 104.705 285.125 105.532C285.432 106.358 285.566 107.239 285.52 108.12Z" fill="#363636" style="fill:#363636;fill:color(display-p3 0.2125 0.2125 0.2125);fill-opacity:1;"/>
<path d="M215.27 198.51C215.222 199.316 214.87 200.073 214.286 200.63C213.701 201.187 212.927 201.501 212.12 201.51C211.73 201.515 211.344 201.439 210.984 201.289C210.625 201.138 210.3 200.915 210.03 200.634C209.76 200.353 209.551 200.019 209.415 199.654C209.279 199.289 209.22 198.899 209.24 198.51C209.283 197.703 209.634 196.942 210.219 196.384C210.805 195.827 211.581 195.514 212.39 195.51C212.779 195.507 213.165 195.583 213.524 195.734C213.883 195.886 214.207 196.108 214.477 196.389C214.746 196.67 214.956 197.003 215.092 197.368C215.229 197.732 215.289 198.121 215.27 198.51Z" fill="#263238" style="fill:#263238;fill:color(display-p3 0.1490 0.1961 0.2196);fill-opacity:1;"/>
<path d="M228.75 198.51C228.704 199.317 228.353 200.076 227.768 200.633C227.183 201.19 226.408 201.504 225.6 201.51C225.211 201.513 224.826 201.437 224.467 201.286C224.109 201.134 223.786 200.911 223.517 200.63C223.248 200.349 223.039 200.016 222.904 199.651C222.769 199.287 222.71 198.898 222.73 198.51C222.773 197.704 223.122 196.945 223.706 196.388C224.289 195.83 225.063 195.516 225.87 195.51C226.26 195.505 226.646 195.581 227.006 195.731C227.365 195.882 227.69 196.105 227.96 196.386C228.23 196.667 228.439 197.001 228.575 197.366C228.711 197.731 228.771 198.121 228.75 198.51Z" fill="#263238" style="fill:#263238;fill:color(display-p3 0.1490 0.1961 0.2196);fill-opacity:1;"/>
<path d="M242.24 198.51C242.194 199.317 241.843 200.076 241.258 200.633C240.673 201.19 239.898 201.504 239.09 201.51C238.701 201.513 238.315 201.437 237.956 201.286C237.597 201.134 237.273 200.912 237.003 200.631C236.734 200.35 236.524 200.017 236.388 199.652C236.251 199.288 236.191 198.899 236.21 198.51C236.256 197.703 236.607 196.944 237.192 196.387C237.777 195.83 238.552 195.516 239.36 195.51C239.75 195.505 240.136 195.581 240.496 195.731C240.855 195.882 241.18 196.105 241.45 196.386C241.72 196.667 241.929 197.001 242.065 197.366C242.201 197.731 242.261 198.121 242.24 198.51Z" fill="#263238" style="fill:#263238;fill:color(display-p3 0.1490 0.1961 0.2196);fill-opacity:1;"/>
<path d="M213 249.25C212.952 250.056 212.6 250.813 212.016 251.37C211.431 251.927 210.657 252.241 209.85 252.25C209.461 252.253 209.075 252.177 208.716 252.026C208.357 251.874 208.033 251.652 207.763 251.371C207.494 251.09 207.284 250.757 207.148 250.392C207.011 250.028 206.951 249.639 206.97 249.25C207.016 248.443 207.367 247.684 207.952 247.127C208.537 246.57 209.312 246.256 210.12 246.25C210.509 246.247 210.895 246.323 211.254 246.474C211.613 246.626 211.937 246.848 212.207 247.129C212.476 247.41 212.686 247.743 212.822 248.108C212.959 248.472 213.019 248.861 213 249.25Z" fill="#263238" style="fill:#263238;fill:color(display-p3 0.1490 0.1961 0.2196);fill-opacity:1;"/>
<path d="M226.48 249.25C226.434 250.055 226.085 250.813 225.502 251.369C224.919 251.926 224.146 252.241 223.34 252.25C222.95 252.255 222.564 252.179 222.204 252.029C221.845 251.878 221.52 251.655 221.25 251.374C220.98 251.093 220.771 250.759 220.635 250.394C220.499 250.029 220.439 249.639 220.46 249.25C220.506 248.443 220.857 247.684 221.442 247.127C222.027 246.57 222.802 246.256 223.61 246.25C223.999 246.247 224.384 246.323 224.743 246.474C225.101 246.626 225.424 246.849 225.693 247.13C225.962 247.411 226.171 247.744 226.306 248.109C226.441 248.473 226.5 248.862 226.48 249.25Z" fill="#263238" style="fill:#263238;fill:color(display-p3 0.1490 0.1961 0.2196);fill-opacity:1;"/>
<path d="M240 249.25C239.954 250.057 239.603 250.816 239.018 251.373C238.433 251.93 237.658 252.244 236.85 252.25C236.461 252.252 236.076 252.174 235.718 252.023C235.36 251.871 235.036 251.648 234.767 251.368C234.497 251.087 234.288 250.755 234.151 250.391C234.014 250.027 233.952 249.639 233.97 249.25C234.018 248.444 234.37 247.687 234.954 247.13C235.539 246.573 236.313 246.259 237.12 246.25C237.51 246.245 237.896 246.321 238.256 246.471C238.615 246.622 238.94 246.845 239.21 247.126C239.48 247.407 239.689 247.741 239.825 248.106C239.961 248.471 240.021 248.861 240 249.25Z" fill="#263238" style="fill:#263238;fill:color(display-p3 0.1490 0.1961 0.2196);fill-opacity:1;"/>
<path d="M253.46 249.25C253.412 250.056 253.06 250.813 252.476 251.37C251.891 251.927 251.117 252.241 250.31 252.25C249.921 252.252 249.536 252.174 249.178 252.023C248.82 251.871 248.496 251.648 248.227 251.368C247.958 251.087 247.748 250.755 247.611 250.391C247.474 250.027 247.413 249.639 247.43 249.25C247.478 248.444 247.83 247.687 248.415 247.13C248.999 246.573 249.773 246.259 250.58 246.25C250.97 246.247 251.355 246.323 251.714 246.474C252.073 246.626 252.397 246.848 252.667 247.129C252.936 247.41 253.146 247.743 253.282 248.108C253.419 248.472 253.479 248.861 253.46 249.25Z" fill="#263238" style="fill:#263238;fill:color(display-p3 0.1490 0.1961 0.2196);fill-opacity:1;"/>
<path d="M267 249.25C266.952 250.056 266.6 250.813 266.016 251.37C265.431 251.927 264.657 252.241 263.85 252.25C263.46 252.255 263.074 252.179 262.714 252.029C262.355 251.878 262.03 251.655 261.76 251.374C261.49 251.093 261.281 250.759 261.145 250.394C261.009 250.029 260.949 249.639 260.97 249.25C261.016 248.443 261.367 247.684 261.952 247.127C262.537 246.57 263.312 246.256 264.12 246.25C264.509 246.247 264.895 246.323 265.254 246.474C265.613 246.626 265.937 246.848 266.207 247.129C266.476 247.41 266.686 247.743 266.822 248.108C266.959 248.472 267.019 248.861 267 249.25Z" fill="#263238" style="fill:#263238;fill:color(display-p3 0.1490 0.1961 0.2196);fill-opacity:1;"/>
<path d="M264.953 127.046C269.139 122.953 269.361 116.392 265.449 112.392C261.538 108.392 254.974 108.468 250.788 112.561C246.603 116.654 246.381 123.214 250.292 127.214C254.204 131.214 260.768 131.139 264.953 127.046Z" fill="#363636" style="fill:#363636;fill:color(display-p3 0.2125 0.2125 0.2125);fill-opacity:1;"/>
<path d="M277.54 143.43C275.049 146.694 271.842 149.344 268.167 151.176C264.492 153.009 260.446 153.975 256.34 154C252.358 154.034 248.429 153.087 244.899 151.244C241.37 149.401 238.348 146.717 236.1 143.43C240.96 138.59 248.65 135.43 257.17 135.43C265.69 135.43 273.11 138.59 277.54 143.43Z" fill="#363636" style="fill:#363636;fill:color(display-p3 0.2125 0.2125 0.2125);fill-opacity:1;"/>
<path opacity="0.1" d="M264.953 127.046C269.139 122.953 269.361 116.392 265.449 112.392C261.538 108.392 254.974 108.468 250.788 112.561C246.603 116.654 246.381 123.214 250.292 127.214C254.204 131.214 260.768 131.139 264.953 127.046Z" fill="white" style="fill:white;fill-opacity:1;"/>
<path opacity="0.1" d="M277.54 143.43C275.049 146.694 271.842 149.344 268.167 151.176C264.492 153.009 260.446 153.975 256.34 154C252.358 154.034 248.429 153.087 244.899 151.244C241.37 149.401 238.348 146.717 236.1 143.43C240.96 138.59 248.65 135.43 257.17 135.43C265.69 135.43 273.11 138.59 277.54 143.43Z" fill="white" style="fill:white;fill-opacity:1;"/>
<path d="M130.41 212.44C129.46 214.52 128.46 216.81 127.59 219.03C126.72 221.25 125.83 223.54 125.06 225.82C123.488 230.313 122.29 234.929 121.48 239.62L121.26 241.09C121.239 241.342 121.263 241.596 121.33 241.84C121.566 242.669 121.938 243.453 122.43 244.16C123.714 245.991 125.204 247.668 126.87 249.16C128.626 250.794 130.469 252.333 132.39 253.77C134.31 255.25 136.33 256.69 138.32 258.05L136.45 261.56C131.698 259.49 127.188 256.904 123 253.85C120.766 252.221 118.749 250.312 117 248.17C115.963 246.895 115.154 245.45 114.61 243.9C114.293 242.931 114.131 241.919 114.13 240.9C114.13 240.66 114.13 240.31 114.13 240.14V239.65L114.23 238.65C114.803 233.44 115.899 228.301 117.5 223.31C118.28 220.85 119.11 218.4 120.06 216.01C121.01 213.62 121.99 211.28 123.2 208.85L130.41 212.44Z" fill="#E58A7B" style="fill:#E58A7B;fill:color(display-p3 0.8980 0.5412 0.4824);fill-opacity:1;"/>
<path d="M136.91 257.43L143.98 253.85L142.15 261.61C142.15 261.61 137.3 262.97 135.05 260.61L136.91 257.43Z" fill="#E58A7B" style="fill:#E58A7B;fill:color(display-p3 0.8980 0.5412 0.4824);fill-opacity:1;"/>
<path d="M150.45 255.12L148.57 261.54L142.15 261.61L143.98 253.85L150.45 255.12Z" fill="#E58A7B" style="fill:#E58A7B;fill:color(display-p3 0.8980 0.5412 0.4824);fill-opacity:1;"/>
<path d="M160.43 175C160.808 176.386 161.334 177.727 162 179C161.805 179.22 161.555 179.384 161.275 179.474C160.995 179.564 160.696 179.576 160.41 179.51L160.43 175Z" fill="#DF5753" style="fill:#DF5753;fill:color(display-p3 0.8745 0.3412 0.3255);fill-opacity:1;"/>
<path d="M160.22 175.06C160.634 175.06 160.97 174.545 160.97 173.91C160.97 173.275 160.634 172.76 160.22 172.76C159.806 172.76 159.47 173.275 159.47 173.91C159.47 174.545 159.806 175.06 160.22 175.06Z" fill="#263238" style="fill:#263238;fill:color(display-p3 0.1490 0.1961 0.2196);fill-opacity:1;"/>
<path d="M160 172.8L161.52 172.37C161.52 172.37 160.78 173.55 160 172.8Z" fill="#263238" style="fill:#263238;fill:color(display-p3 0.1490 0.1961 0.2196);fill-opacity:1;"/>
<path d="M140.9 182.34C141.81 186.99 142.72 195.52 139.46 198.63C139.46 198.63 140.74 203.35 149.39 203.35C158.9 203.35 153.93 198.63 153.93 198.63C148.74 197.39 148.87 193.54 149.78 189.92L140.9 182.34Z" fill="#E58A7B" style="fill:#E58A7B;fill:color(display-p3 0.8980 0.5412 0.4824);fill-opacity:1;"/>
<path d="M138.37 171.74C138.85 179.51 138.89 182.81 142.81 186.8C148.72 192.8 158.16 190.52 160.01 182.8C161.68 175.8 160.62 164.28 153.01 161.19C151.339 160.502 149.521 160.251 147.727 160.462C145.932 160.672 144.222 161.337 142.756 162.393C141.29 163.45 140.118 164.862 139.351 166.498C138.583 168.133 138.246 169.938 138.37 171.74Z" fill="#E58A7B" style="fill:#E58A7B;fill:color(display-p3 0.8980 0.5412 0.4824);fill-opacity:1;"/>
<path d="M139.14 163C135.24 164.42 130.04 163.36 132.08 175.39C134.24 188.13 130.92 192.32 130.92 192.32C130.92 192.32 145.71 195.47 160.81 192.13C160.81 192.13 156.2 184.07 157.49 178.13C159.14 170.63 157.84 167.86 157.84 167.86C157.84 167.86 144.62 161 139.14 163Z" fill="#263238" style="fill:#263238;fill:color(display-p3 0.1490 0.1961 0.2196);fill-opacity:1;"/>
<path d="M155.64 175.79C155.644 177.267 156.067 178.713 156.86 179.96C157.92 181.58 159.17 180.96 159.48 179.24C159.76 177.73 159.55 175.06 158.2 174.02C156.85 172.98 155.66 174 155.64 175.79Z" fill="#E58A7B" style="fill:#E58A7B;fill:color(display-p3 0.8980 0.5412 0.4824);fill-opacity:1;"/>
<path d="M135.75 164.31C134.63 161.16 139.97 156.31 151.27 158.31C162.57 160.31 163.06 169.72 163.06 169.72L160.78 167L160.88 169.86L149.27 172.09L135.75 164.31Z" fill="#263238" style="fill:#263238;fill:color(display-p3 0.1490 0.1961 0.2196);fill-opacity:1;"/>
<path d="M136.71 199.16C136.643 198.703 136.758 198.239 137.028 197.865C137.299 197.492 137.705 197.239 138.16 197.16C141.68 196.58 149.68 195.4 153.7 195.96C156.7 196.38 157.48 198.12 157.61 199.55C157.63 199.8 157.597 200.052 157.512 200.289C157.427 200.525 157.292 200.74 157.117 200.92C156.942 201.1 156.73 201.241 156.496 201.332C156.262 201.423 156.011 201.464 155.76 201.45L138.38 200.67C137.97 200.649 137.58 200.488 137.276 200.213C136.972 199.937 136.772 199.566 136.71 199.16Z" fill="#363636" style="fill:#363636;fill:color(display-p3 0.2125 0.2125 0.2125);fill-opacity:1;"/>
<path opacity="0.6" d="M136.71 199.16C136.643 198.703 136.758 198.239 137.028 197.865C137.299 197.492 137.705 197.239 138.16 197.16C141.68 196.58 149.68 195.4 153.7 195.96C156.7 196.38 157.48 198.12 157.61 199.55C157.63 199.8 157.597 200.052 157.512 200.289C157.427 200.525 157.292 200.74 157.117 200.92C156.942 201.1 156.73 201.241 156.496 201.332C156.262 201.423 156.011 201.464 155.76 201.45L138.38 200.67C137.97 200.649 137.58 200.488 137.276 200.213C136.972 199.937 136.772 199.566 136.71 199.16Z" fill="black" style="fill:black;fill-opacity:1;"/>
<path d="M146.76 373.86L153.21 378.34L164 363.71L157.55 359.24L146.76 373.86Z" fill="#E58A7B" style="fill:#E58A7B;fill:color(display-p3 0.8980 0.5412 0.4824);fill-opacity:1;"/>
<path d="M131.72 373.57L138.53 377.45L148.08 361.98L141.27 358.1L131.72 373.57Z" fill="#E58A7B" style="fill:#E58A7B;fill:color(display-p3 0.8980 0.5412 0.4824);fill-opacity:1;"/>
<path d="M163.99 363.71L158.43 371.25L151.98 366.78L157.54 359.24L163.99 363.71Z" fill="#CF6F64" style="fill:#CF6F64;fill:color(display-p3 0.8118 0.4353 0.3922);fill-opacity:1;"/>
<path d="M141.26 358.1L148.08 361.99L143.16 369.96L136.34 366.07L141.26 358.1Z" fill="#CF6F64" style="fill:#CF6F64;fill:color(display-p3 0.8118 0.4353 0.3922);fill-opacity:1;"/>
<path d="M152.2 248C152.2 248 177.38 279.73 172.65 310.08C168.84 334.59 146.74 367.78 146.74 367.78L136.35 362.62C143.674 347.945 149.923 332.759 155.05 317.18C156.631 312.343 157.092 307.211 156.4 302.17C155.707 297.128 153.877 292.311 151.05 288.08C138.29 269.45 117.85 280.54 131.6 248H152.2Z" fill="#363636" style="fill:#363636;fill:color(display-p3 0.2125 0.2125 0.2125);fill-opacity:1;"/>
<path opacity="0.6" d="M152.2 248C152.2 248 177.38 279.73 172.65 310.08C168.84 334.59 146.74 367.78 146.74 367.78L136.35 362.62C143.674 347.945 149.923 332.759 155.05 317.18C156.631 312.343 157.092 307.211 156.4 302.17C155.707 297.128 153.877 292.311 151.05 288.08C138.29 269.45 117.85 280.54 131.6 248H152.2Z" fill="black" style="fill:black;fill-opacity:1;"/>
<path opacity="0.4" d="M164.55 268.38L160.89 264.74C160.89 265.03 167.98 308.8 169.97 321.1C171.144 317.507 172.043 313.83 172.66 310.1C175 295.21 170.11 280 164.55 268.38Z" fill="black" style="fill:black;fill-opacity:1;"/>
<path d="M163.44 248C163.44 248 193.76 287.88 194.62 311.79C195.33 331.79 161.62 370.54 161.62 370.54L151.82 364.2C151.82 364.2 171.55 336.68 176.52 314.2C174.6 291.92 134 248 134 248H163.44Z" fill="#363636" style="fill:#363636;fill:color(display-p3 0.2125 0.2125 0.2125);fill-opacity:1;"/>
<path opacity="0.6" d="M163.44 248C163.44 248 193.76 287.88 194.62 311.79C195.33 331.79 161.62 370.54 161.62 370.54L151.82 364.2C151.82 364.2 171.55 336.68 176.52 314.2C174.6 291.92 134 248 134 248H163.44Z" fill="black" style="fill:black;fill-opacity:1;"/>
<path d="M125.93 200.41C122.69 201.18 119.58 212.96 119.58 212.96L132.25 221.42C132.25 221.42 136.47 212.1 134.99 208.02C133.46 203.77 130 199.44 125.93 200.41Z" fill="#363636" style="fill:#363636;fill:color(display-p3 0.2125 0.2125 0.2125);fill-opacity:1;"/>
<path opacity="0.2" d="M128.41 208L127.53 218.27L132.24 221.43C133.541 218.502 134.503 215.436 135.11 212.29L128.41 208Z" fill="black" style="fill:black;fill-opacity:1;"/>
<path d="M167.19 200.64C167.19 200.64 170.93 201.95 163.44 247.99H131.58C132.12 234.99 132.13 226.99 125.93 200.41C130.391 199.491 134.913 198.896 139.46 198.63C144.277 198.285 149.113 198.285 153.93 198.63C160.15 199.2 167.19 200.64 167.19 200.64Z" fill="#363636" style="fill:#363636;fill:color(display-p3 0.2125 0.2125 0.2125);fill-opacity:1;"/>
<path d="M170.43 208C171.15 210 171.91 212.15 172.71 214.22C173.51 216.29 174.27 218.42 175.08 220.52L177.53 226.8L178.15 228.37L178.47 229.15L178.62 229.54C178.62 229.61 178.62 229.61 178.62 229.6C178.437 229.342 178.198 229.13 177.92 228.98C177.524 228.747 177.079 228.613 176.62 228.59C176.239 228.578 175.86 228.65 175.51 228.8C175.05 229.01 175.05 229.1 175.06 229.09C175.143 229.023 175.217 228.946 175.28 228.86C175.834 228.133 176.313 227.353 176.71 226.53C177.18 225.61 177.63 224.63 178.08 223.64C178.96 221.64 179.77 219.57 180.58 217.48C181.39 215.39 182.16 213.28 182.91 211.15L185.19 204.77L189.04 205.77C188.28 210.33 187.3 214.77 186.12 219.29C185.55 221.54 184.88 223.77 184.12 226.02C183.74 227.15 183.32 228.27 182.84 229.42C182.34 230.668 181.724 231.867 181 233C180.734 233.381 180.44 233.742 180.12 234.08C179.609 234.632 178.99 235.071 178.3 235.37C177.688 235.633 177.025 235.756 176.36 235.73C175.615 235.702 174.889 235.485 174.25 235.1C173.497 234.63 172.871 233.981 172.43 233.21C172.28 232.95 172.15 232.69 172.06 232.5L171.87 232.12L171.49 231.34L170.73 229.79C169.73 227.71 168.73 225.61 167.86 223.5C166.99 221.39 166.07 219.25 165.21 217.1C164.35 214.95 163.58 212.8 162.85 210.48L170.43 208Z" fill="#E58A7B" style="fill:#E58A7B;fill:color(display-p3 0.8980 0.5412 0.4824);fill-opacity:1;"/>
<path d="M167.19 200.64C171.02 201.55 175.33 212.87 175.33 212.87L163.94 222.56C163.94 222.56 156.57 210.22 158.06 206.15C159.61 201.91 162.19 199.45 167.19 200.64Z" fill="#363636" style="fill:#363636;fill:color(display-p3 0.2125 0.2125 0.2125);fill-opacity:1;"/>
<path d="M187 201.19L191 197.85L193.78 202.18L191.73 205.79C191.73 205.79 188.47 208.79 185.59 207.26C185.133 206.233 185.023 205.084 185.278 203.989C185.532 202.893 186.137 201.911 187 201.19Z" fill="#E58A7B" style="fill:#E58A7B;fill:color(display-p3 0.8980 0.5412 0.4824);fill-opacity:1;"/>
<path d="M198.22 197.86L197.92 198.95L191.59 200.01L190.97 197.85L198.22 197.86Z" fill="#E58A7B" style="fill:#E58A7B;fill:color(display-p3 0.8980 0.5412 0.4824);fill-opacity:1;"/>
<path d="M162.4 371.05L150.98 363.67L153.03 360.11L165.86 368L162.4 371.05Z" fill="#363636" style="fill:#363636;fill:color(display-p3 0.2125 0.2125 0.2125);fill-opacity:1;"/>
<path d="M143 376.93C141.998 376.808 141.035 376.466 140.18 375.93C140.145 375.918 140.114 375.895 140.092 375.864C140.071 375.834 140.059 375.797 140.059 375.76C140.059 375.723 140.071 375.686 140.092 375.656C140.114 375.625 140.145 375.602 140.18 375.59C140.49 375.49 143.18 374.66 143.96 375.3C144.048 375.373 144.114 375.468 144.153 375.575C144.192 375.682 144.201 375.798 144.18 375.91C144.166 376.09 144.106 376.264 144.007 376.414C143.907 376.565 143.77 376.687 143.61 376.77C143.423 376.872 143.213 376.927 143 376.93ZM140.75 375.83C142 376.47 143 376.7 143.48 376.46C143.584 376.402 143.672 376.318 143.735 376.217C143.798 376.115 143.834 375.999 143.84 375.88C143.84 375.72 143.84 375.65 143.75 375.61C143.33 375.27 141.83 375.53 140.73 375.83H140.75Z" fill="#263238" style="fill:#263238;fill:color(display-p3 0.1490 0.1961 0.2196);fill-opacity:1;"/>
<path d="M140.25 376C140.197 375.999 140.147 375.978 140.11 375.94C140.095 375.912 140.087 375.881 140.087 375.85C140.087 375.819 140.095 375.788 140.11 375.76C140.11 375.67 140.76 373.5 141.78 373.01C141.91 372.951 142.052 372.92 142.195 372.92C142.338 372.92 142.48 372.951 142.61 373.01C142.751 373.054 142.872 373.144 142.955 373.266C143.039 373.387 143.079 373.533 143.07 373.68C143 374.58 141.17 375.82 140.33 376.03L140.25 376ZM142.19 373.27C142.093 373.273 141.997 373.297 141.91 373.34C141.29 373.64 140.78 374.81 140.53 375.52C141.41 375.15 142.62 374.17 142.66 373.62C142.66 373.53 142.66 373.42 142.43 373.32C142.355 373.28 142.274 373.253 142.19 373.24V373.27Z" fill="#263238" style="fill:#263238;fill:color(display-p3 0.1490 0.1961 0.2196);fill-opacity:1;"/>
<path d="M157.27 381.25C156.14 381.25 154.57 379.8 153.71 378.91C153.688 378.879 153.676 378.843 153.676 378.805C153.676 378.767 153.688 378.731 153.71 378.7C153.73 378.668 153.758 378.641 153.791 378.624C153.825 378.606 153.862 378.598 153.9 378.6C154.3 378.6 157.77 379.12 158.26 380.1C158.312 380.188 158.339 380.288 158.339 380.39C158.339 380.492 158.312 380.592 158.26 380.68C158.187 380.833 158.076 380.964 157.937 381.062C157.799 381.16 157.638 381.221 157.47 381.24L157.27 381.25ZM154.37 379.05C155.63 380.27 156.74 380.95 157.37 380.87C157.48 380.856 157.586 380.814 157.676 380.75C157.767 380.685 157.84 380.6 157.89 380.5C157.912 380.466 157.924 380.426 157.924 380.385C157.924 380.344 157.912 380.304 157.89 380.27C157.63 379.73 155.78 379.27 154.37 379.05Z" fill="#263238" style="fill:#263238;fill:color(display-p3 0.1490 0.1961 0.2196);fill-opacity:1;"/>
<path d="M154.48 379C154.255 379.006 154.031 378.99 153.81 378.95C153.779 378.945 153.75 378.933 153.725 378.914C153.701 378.894 153.682 378.869 153.67 378.84C153.655 378.811 153.647 378.778 153.647 378.745C153.647 378.712 153.655 378.679 153.67 378.65C153.73 378.58 155.08 376.95 156.36 376.84C156.722 376.812 157.081 376.927 157.36 377.16C157.75 377.5 157.73 377.8 157.63 377.99C157.38 378.67 155.65 379 154.48 379ZM154.22 378.63C155.34 378.69 157.13 378.32 157.36 377.83C157.36 377.83 157.44 377.67 157.18 377.45C157.076 377.36 156.956 377.292 156.825 377.251C156.694 377.21 156.556 377.196 156.42 377.21C155.558 377.451 154.79 377.95 154.22 378.64V378.63Z" fill="#263238" style="fill:#263238;fill:color(display-p3 0.1490 0.1961 0.2196);fill-opacity:1;"/>
<path d="M140.52 374.92L132.04 372.52C131.894 372.476 131.736 372.487 131.598 372.552C131.46 372.616 131.35 372.73 131.29 372.87L128.43 379.3C128.363 379.465 128.331 379.642 128.337 379.819C128.344 379.997 128.387 380.172 128.466 380.331C128.544 380.491 128.655 380.632 128.792 380.746C128.929 380.859 129.089 380.942 129.26 380.99C132.26 381.77 133.7 381.99 137.43 383.06C139.73 383.7 143.01 384.89 146.18 385.79C149.35 386.69 150.41 383.6 149.18 382.94C143.62 380 143.18 377.94 141.66 375.74C141.388 375.342 140.984 375.051 140.52 374.92Z" fill="#363636" style="fill:#363636;fill:color(display-p3 0.2125 0.2125 0.2125);fill-opacity:1;"/>
<path d="M153.94 377.74L146.7 372.74C146.577 372.651 146.426 372.609 146.275 372.624C146.124 372.639 145.983 372.709 145.88 372.82L141.08 377.98C140.963 378.113 140.876 378.27 140.824 378.44C140.772 378.609 140.757 378.788 140.78 378.964C140.803 379.14 140.863 379.309 140.956 379.46C141.049 379.611 141.173 379.741 141.32 379.84C143.87 381.55 145.19 382.24 148.38 384.45C150.38 385.81 154.25 388.83 156.95 390.71C159.65 392.59 161.66 390.01 160.7 388.99C156.4 384.4 155.46 381.52 154.75 378.91C154.627 378.437 154.34 378.022 153.94 377.74Z" fill="#363636" style="fill:#363636;fill:color(display-p3 0.2125 0.2125 0.2125);fill-opacity:1;"/>
<path d="M148.07 368.44L135.02 361.95L136.37 358.41L150.31 365.25L148.07 368.44Z" fill="#363636" style="fill:#363636;fill:color(display-p3 0.2125 0.2125 0.2125);fill-opacity:1;"/>
<path d="M131.1 246.12L130 249C129.89 249.22 130.15 249.45 130.52 249.45H163.6C163.89 249.45 164.13 249.31 164.15 249.13L164.43 246.27C164.43 246.08 164.2 245.91 163.89 245.91H131.62C131.523 245.901 131.425 245.915 131.335 245.952C131.244 245.988 131.164 246.046 131.1 246.12Z" fill="#363636" style="fill:#363636;fill:color(display-p3 0.2125 0.2125 0.2125);fill-opacity:1;"/>
<path opacity="0.4" d="M131.1 246.12L130 249C129.89 249.22 130.15 249.45 130.52 249.45H163.6C163.89 249.45 164.13 249.31 164.15 249.13L164.43 246.27C164.43 246.08 164.2 245.91 163.89 245.91H131.62C131.523 245.901 131.425 245.915 131.335 245.952C131.244 245.988 131.164 246.046 131.1 246.12Z" fill="white" style="fill:white;fill-opacity:1;"/>
<path d="M136.31 249.73H135.44C135.27 249.73 135.14 249.64 135.15 249.53L135.56 245.82C135.56 245.72 135.72 245.63 135.89 245.63H136.76C136.93 245.63 137.06 245.72 137.05 245.82L136.64 249.53C136.63 249.64 136.48 249.73 136.31 249.73Z" fill="#363636" style="fill:#363636;fill:color(display-p3 0.2125 0.2125 0.2125);fill-opacity:1;"/>
<path d="M156.71 249.73H155.85C155.68 249.73 155.55 249.64 155.56 249.53L155.96 245.82C155.96 245.72 156.13 245.63 156.3 245.63H157.16C157.33 245.63 157.47 245.72 157.45 245.82L157.05 249.53C157 249.64 156.89 249.73 156.71 249.73Z" fill="#363636" style="fill:#363636;fill:color(display-p3 0.2125 0.2125 0.2125);fill-opacity:1;"/>
<g style="mix-blend-mode:multiply">
<path d="M135.55 419.08C150.346 419.08 162.34 418.211 162.34 417.14C162.34 416.069 150.346 415.2 135.55 415.2C120.754 415.2 108.76 416.069 108.76 417.14C108.76 418.211 120.754 419.08 135.55 419.08Z" fill="#F5F5F5" style="fill:#F5F5F5;fill:color(display-p3 0.9608 0.9608 0.9608);fill-opacity:1;"/>
</g>
<path d="M151.87 414.4C147.13 413.02 141.87 411.25 138.69 409.4C138.6 409.34 138.5 409.31 138.41 409.26V387.8H148C148.728 387.757 149.412 387.437 149.912 386.907C150.412 386.376 150.691 385.674 150.691 384.945C150.691 384.216 150.412 383.514 149.912 382.983C149.412 382.453 148.728 382.133 148 382.09H138.46V284.27H132.7V382.09H123.17C122.781 382.067 122.391 382.124 122.025 382.257C121.658 382.39 121.323 382.596 121.039 382.864C120.756 383.131 120.53 383.454 120.375 383.812C120.221 384.169 120.141 384.555 120.141 384.945C120.141 385.335 120.221 385.72 120.375 386.078C120.53 386.436 120.756 386.759 121.039 387.026C121.323 387.294 121.658 387.5 122.025 387.633C122.391 387.766 122.781 387.823 123.17 387.8H132.7V409.23C132.61 409.23 132.52 409.31 132.43 409.37C129.2 411.25 123.98 413.02 119.24 414.37C118.92 414.467 118.645 414.675 118.465 414.957C118.285 415.239 118.212 415.576 118.259 415.907C118.306 416.239 118.47 416.542 118.722 416.762C118.973 416.983 119.295 417.106 119.63 417.11H151.48C151.8 417.088 152.102 416.957 152.337 416.74C152.572 416.522 152.725 416.23 152.77 415.913C152.816 415.596 152.752 415.272 152.588 414.997C152.424 414.722 152.17 414.511 151.87 414.4Z" fill="#E0E0E0" style="fill:#E0E0E0;fill:color(display-p3 0.8784 0.8784 0.8784);fill-opacity:1;"/>
<path d="M153.34 274.31H117.78C114.919 274.31 112.6 276.629 112.6 279.49V290.06C112.6 292.921 114.919 295.24 117.78 295.24H153.34C156.201 295.24 158.52 292.921 158.52 290.06V279.49C158.52 276.629 156.201 274.31 153.34 274.31Z" fill="#363636" style="fill:#363636;fill:color(display-p3 0.2125 0.2125 0.2125);fill-opacity:1;"/>
<path d="M117.45 295.25V297.07C117.45 298.57 119.08 299.79 121.08 299.79H150.08C152.08 299.79 153.71 298.57 153.71 297.07V295.25H117.45Z" fill="#363636" style="fill:#363636;fill:color(display-p3 0.2125 0.2125 0.2125);fill-opacity:1;"/>
<path opacity="0.3" d="M117.45 295.25V297.07C117.45 298.57 119.08 299.79 121.08 299.79H150.08C152.08 299.79 153.71 298.57 153.71 297.07V295.25H117.45Z" fill="white" style="fill:white;fill-opacity:1;"/>
</svg>
