<svg width="30" height="30" viewBox="0 0 30 30" fill="none" xmlns="http://www.w3.org/2000/svg">
<path d="M3.125 5.3125C3.125 5.06386 3.22377 4.8254 3.39959 4.64959C3.5754 4.47377 3.81386 4.375 4.0625 4.375H4.76C5.9475 4.375 6.66 5.17375 7.06625 5.91625C7.3375 6.41125 7.53375 6.985 7.6875 7.505C7.72909 7.50172 7.77079 7.50005 7.8125 7.5H23.435C24.4725 7.5 25.2225 8.4925 24.9375 9.49125L22.6525 17.5025C22.4476 18.2211 22.0142 18.8533 21.4179 19.3035C20.8215 19.7537 20.0947 19.9973 19.3475 19.9975H11.9125C11.1594 19.9975 10.4271 19.7502 9.82816 19.2936C9.22925 18.8369 8.79688 18.1963 8.5975 17.47L7.6475 14.005L6.0725 8.695L6.07125 8.685C5.87625 7.97625 5.69375 7.3125 5.42125 6.8175C5.16 6.33625 4.95 6.25 4.76125 6.25H4.0625C3.81386 6.25 3.5754 6.15123 3.39959 5.97541C3.22377 5.7996 3.125 5.56114 3.125 5.3125ZM11.25 26.25C11.913 26.25 12.5489 25.9866 13.0178 25.5178C13.4866 25.0489 13.75 24.413 13.75 23.75C13.75 23.087 13.4866 22.4511 13.0178 21.9822C12.5489 21.5134 11.913 21.25 11.25 21.25C10.587 21.25 9.95108 21.5134 9.48223 21.9822C9.01339 22.4511 8.75 23.087 8.75 23.75C8.75 24.413 9.01339 25.0489 9.48223 25.5178C9.95108 25.9866 10.587 26.25 11.25 26.25ZM20 26.25C20.663 26.25 21.2989 25.9866 21.7678 25.5178C22.2366 25.0489 22.5 24.413 22.5 23.75C22.5 23.087 22.2366 22.4511 21.7678 21.9822C21.2989 21.5134 20.663 21.25 20 21.25C19.337 21.25 18.7011 21.5134 18.2322 21.9822C17.7634 22.4511 17.5 23.087 17.5 23.75C17.5 24.413 17.7634 25.0489 18.2322 25.5178C18.7011 25.9866 19.337 26.25 20 26.25Z" fill="#363636" style="fill:#363636;fill:color(display-p3 0.2125 0.2125 0.2125);fill-opacity:1;"/>
</svg>
